<?xml version="1.0" encoding="UTF-8" standalone="no"?>
<!-- Created with Inkscape (http://www.inkscape.org/) -->

<svg
   xmlns:dc="http://purl.org/dc/elements/1.1/"
   xmlns:cc="http://creativecommons.org/ns#"
   xmlns:rdf="http://www.w3.org/1999/02/22-rdf-syntax-ns#"
   xmlns:svg="http://www.w3.org/2000/svg"
   xmlns="http://www.w3.org/2000/svg"
   xmlns:sodipodi="http://sodipodi.sourceforge.net/DTD/sodipodi-0.dtd"
   xmlns:inkscape="http://www.inkscape.org/namespaces/inkscape"
   width="210mm"
   height="297mm"
   viewBox="0 0 210 297"
   version="1.1"
   id="svg8"
   sodipodi:docname="content_tree.svg"
   inkscape:version="0.92.1 r"
   inkscape:export-filename="/home/clemens/Rstats/tutorial_cologne_may2017/pres/images/tree.png"
   inkscape:export-xdpi="295.64899"
   inkscape:export-ydpi="295.64899">
  <defs
     id="defs2" />
  <sodipodi:namedview
     id="base"
     pagecolor="#ffffff"
     bordercolor="#666666"
     borderopacity="1.0"
     inkscape:pageopacity="0.0"
     inkscape:pageshadow="2"
     inkscape:zoom="1"
     inkscape:cx="341.72388"
     inkscape:cy="588.78057"
     inkscape:document-units="mm"
     inkscape:current-layer="layer1"
     showgrid="false"
     inkscape:snap-global="false"
     inkscape:object-paths="true"
     inkscape:snap-bbox="true"
     inkscape:window-width="1920"
     inkscape:window-height="1010"
     inkscape:window-x="0"
     inkscape:window-y="0"
     inkscape:window-maximized="1"
     inkscape:snap-object-midpoints="false"
     inkscape:snap-midpoints="true" />
  <metadata
     id="metadata5">
    <rdf:RDF>
      <cc:Work
         rdf:about="">
        <dc:format>image/svg+xml</dc:format>
        <dc:type
           rdf:resource="http://purl.org/dc/dcmitype/StillImage" />
      </cc:Work>
    </rdf:RDF>
  </metadata>
  <g
     inkscape:label="Layer 1"
     inkscape:groupmode="layer"
     id="layer1">
    <path
       style="fill:#23373b;fill-opacity:1;fill-rule:evenodd;stroke:none;stroke-width:0.26458332px;stroke-linecap:butt;stroke-linejoin:miter;stroke-opacity:1"
       d="m 113.20281,197.95545 c 0,0 18.5128,-14.45009 22.55768,-15.82327 7.49367,-2.544 10.94864,-6.03746 15.92023,-10.59151 19.31903,-13.24598 26.3507,-58.9882 27.37362,-65.19229 1.52247,-0.0341 1.07609,0.002 1.93143,0 -0.17747,11.15997 -7.09423,42.98759 -17.42286,57.9064 -12.29971,17.76586 -28.70216,31.95926 -33.92076,35.67742 -0.85208,0.60709 -2.82516,3.45032 -2.82516,3.45032 l -4.74039,0.0368"
       id="path911"
       inkscape:connector-curvature="0"
       sodipodi:nodetypes="cscccsscc" />
    <path
       sodipodi:nodetypes="cccssc"
       inkscape:connector-curvature="0"
       id="path907"
       d="m 101.43885,201.18992 c 0,0 -28.492163,-36.18948 -37.751819,-58.69267 3.743908,0.0176 3.700418,0 7.648204,0 1.800746,3.06259 2.622229,6.38109 7.11874,12.45961 2.967331,4.01133 4.298696,8.26218 8.17661,12.4396 9.630718,10.37452 25.509175,22.83378 26.572225,30.55899"
       style="fill:#23373b;fill-opacity:1;fill-rule:evenodd;stroke:none;stroke-width:0.26458332px;stroke-linecap:butt;stroke-linejoin:miter;stroke-opacity:1" />
    <rect
       style="opacity:1;fill:none;fill-opacity:1;fill-rule:nonzero;stroke:#23373b;stroke-width:2;stroke-linecap:round;stroke-linejoin:miter;stroke-miterlimit:4;stroke-dasharray:none;stroke-dashoffset:0;stroke-opacity:1"
       id="rect10"
       width="61.850239"
       height="13.501287"
       x="82.867577"
       y="258.48798" />
    <text
       xml:space="preserve"
       style="font-style:normal;font-variant:normal;font-weight:normal;font-stretch:normal;font-size:7.05555582px;line-height:4.57362413px;font-family:sans-serif;-inkscape-font-specification:'sans-serif, Normal';font-variant-ligatures:normal;font-variant-caps:normal;font-variant-numeric:normal;font-feature-settings:normal;text-align:start;letter-spacing:0px;word-spacing:0px;writing-mode:lr-tb;text-anchor:start;fill:#000000;fill-opacity:1;stroke:none;stroke-width:0.69144559;stroke-linecap:butt;stroke-linejoin:miter;stroke-miterlimit:4;stroke-dasharray:none;stroke-opacity:1"
       x="91.097008"
       y="264.21313"
       id="text825"
       transform="scale(0.98627266,1.0139184)"><tspan
         sodipodi:role="line"
         id="tspan823"
         x="91.097008"
         y="264.21313"
         style="font-style:normal;font-variant:normal;font-weight:normal;font-stretch:normal;font-size:7.05555582px;font-family:sans-serif;-inkscape-font-specification:'sans-serif, Normal';font-variant-ligatures:normal;font-variant-caps:normal;font-variant-numeric:normal;font-feature-settings:normal;text-align:start;writing-mode:lr-tb;text-anchor:start;stroke-width:0.69144559;stroke-miterlimit:4;stroke-dasharray:none">recexcavAAR</tspan></text>
    <rect
       y="128.86494"
       x="37.082867"
       height="13.632307"
       width="40.841175"
       id="rect846"
       style="opacity:1;fill:none;fill-opacity:1;fill-rule:nonzero;stroke:#23373b;stroke-width:1.5;stroke-linecap:round;stroke-linejoin:miter;stroke-miterlimit:4;stroke-dasharray:none;stroke-dashoffset:0;stroke-opacity:1" />
    <text
       id="text850"
       y="136.54663"
       x="42.478634"
       style="font-style:normal;font-variant:normal;font-weight:normal;font-stretch:normal;font-size:7.05555582px;line-height:4.57362413px;font-family:sans-serif;-inkscape-font-specification:'sans-serif, Normal';font-variant-ligatures:normal;font-variant-caps:normal;font-variant-numeric:normal;font-feature-settings:normal;text-align:start;letter-spacing:0px;word-spacing:0px;writing-mode:lr-tb;text-anchor:start;fill:#000000;fill-opacity:1;stroke:none;stroke-width:0.69144559;stroke-linecap:butt;stroke-linejoin:miter;stroke-miterlimit:4;stroke-dasharray:none;stroke-opacity:1"
       xml:space="preserve"
       transform="scale(0.98627266,1.0139184)"><tspan
         style="font-style:normal;font-variant:normal;font-weight:normal;font-stretch:normal;font-size:7.05555582px;font-family:sans-serif;-inkscape-font-specification:'sans-serif, Normal';font-variant-ligatures:normal;font-variant-caps:normal;font-variant-numeric:normal;font-feature-settings:normal;text-align:start;writing-mode:lr-tb;text-anchor:start;stroke-width:0.69144559;stroke-miterlimit:4;stroke-dasharray:none"
         y="136.54663"
         x="42.478634"
         id="tspan848"
         sodipodi:role="line">R Pakete</tspan></text>
    <rect
       style="opacity:1;fill:none;fill-opacity:1;fill-rule:nonzero;stroke:#23373b;stroke-width:1.5;stroke-linecap:round;stroke-linejoin:miter;stroke-miterlimit:4;stroke-dasharray:none;stroke-dashoffset:0;stroke-opacity:1"
       id="rect852"
       width="40.841175"
       height="13.632307"
       x="157.62816"
       y="92.716072" />
    <text
       xml:space="preserve"
       style="font-style:normal;font-variant:normal;font-weight:normal;font-stretch:normal;font-size:7.05555582px;line-height:4.57362413px;font-family:sans-serif;-inkscape-font-specification:'sans-serif, Normal';font-variant-ligatures:normal;font-variant-caps:normal;font-variant-numeric:normal;font-feature-settings:normal;text-align:start;letter-spacing:0px;word-spacing:0px;writing-mode:lr-tb;text-anchor:start;fill:#000000;fill-opacity:1;stroke:none;stroke-width:0.69144559;stroke-linecap:butt;stroke-linejoin:miter;stroke-miterlimit:4;stroke-dasharray:none;stroke-opacity:1"
       x="164.43346"
       y="100.894"
       id="text856"
       transform="scale(0.98627265,1.0139184)"><tspan
         sodipodi:role="line"
         id="tspan854"
         x="164.43346"
         y="100.894"
         style="font-style:normal;font-variant:normal;font-weight:normal;font-stretch:normal;font-size:7.05555582px;font-family:sans-serif;-inkscape-font-specification:'sans-serif, Normal';font-variant-ligatures:normal;font-variant-caps:normal;font-variant-numeric:normal;font-feature-settings:normal;text-align:start;writing-mode:lr-tb;text-anchor:start;stroke-width:0.69144559;stroke-miterlimit:4;stroke-dasharray:none">tidyverse</tspan></text>
    <rect
       y="66.340218"
       x="27.470926"
       height="13.546179"
       width="35.309399"
       id="rect858"
       style="opacity:1;fill:none;fill-opacity:1;fill-rule:nonzero;stroke:#23373b;stroke-width:1.5;stroke-linecap:round;stroke-linejoin:miter;stroke-miterlimit:4;stroke-dasharray:none;stroke-dashoffset:0;stroke-opacity:1" />
    <text
       id="text862"
       y="74.837746"
       x="32.135025"
       style="font-style:normal;font-variant:normal;font-weight:normal;font-stretch:normal;font-size:7.05555582px;line-height:4.57362413px;font-family:sans-serif;-inkscape-font-specification:'sans-serif, Normal';font-variant-ligatures:normal;font-variant-caps:normal;font-variant-numeric:normal;font-feature-settings:normal;text-align:start;letter-spacing:0px;word-spacing:0px;writing-mode:lr-tb;text-anchor:start;fill:#000000;fill-opacity:1;stroke:none;stroke-width:0.69144559;stroke-linecap:butt;stroke-linejoin:miter;stroke-miterlimit:4;stroke-dasharray:none;stroke-opacity:1"
       xml:space="preserve"
       transform="scale(0.98627266,1.0139184)"><tspan
         style="font-style:normal;font-variant:normal;font-weight:normal;font-stretch:normal;font-size:7.05555582px;font-family:sans-serif;-inkscape-font-specification:'sans-serif, Normal';font-variant-ligatures:normal;font-variant-caps:normal;font-variant-numeric:normal;font-feature-settings:normal;text-align:start;writing-mode:lr-tb;text-anchor:start;stroke-width:0.69144559;stroke-miterlimit:4;stroke-dasharray:none"
         y="74.837746"
         x="32.135025"
         id="tspan860"
         sodipodi:role="line">Reports</tspan></text>
    <rect
       style="opacity:1;fill:none;fill-opacity:1;fill-rule:nonzero;stroke:#23373b;stroke-width:1.5;stroke-linecap:round;stroke-linejoin:miter;stroke-miterlimit:4;stroke-dasharray:none;stroke-dashoffset:0;stroke-opacity:1"
       id="rect864"
       width="16.620224"
       height="13.840611"
       x="110.00695"
       y="115.44026" />
    <text
       xml:space="preserve"
       style="font-style:normal;font-variant:normal;font-weight:normal;font-stretch:normal;font-size:7.05555582px;line-height:4.57362413px;font-family:sans-serif;-inkscape-font-specification:'sans-serif, Normal';font-variant-ligatures:normal;font-variant-caps:normal;font-variant-numeric:normal;font-feature-settings:normal;text-align:start;letter-spacing:0px;word-spacing:0px;writing-mode:lr-tb;text-anchor:start;fill:#000000;fill-opacity:1;stroke:none;stroke-width:0.69144559;stroke-linecap:butt;stroke-linejoin:miter;stroke-miterlimit:4;stroke-dasharray:none;stroke-opacity:1"
       x="116.86867"
       y="123.40897"
       id="text868"
       transform="scale(0.98627266,1.0139184)"><tspan
         sodipodi:role="line"
         id="tspan866"
         x="116.86867"
         y="123.40897"
         style="font-style:normal;font-variant:normal;font-weight:normal;font-stretch:normal;font-size:7.05555582px;font-family:sans-serif;-inkscape-font-specification:'sans-serif, Normal';font-variant-ligatures:normal;font-variant-caps:normal;font-variant-numeric:normal;font-feature-settings:normal;text-align:start;writing-mode:lr-tb;text-anchor:start;stroke-width:0.69144559;stroke-miterlimit:4;stroke-dasharray:none">...</tspan></text>
    <path
       style="fill:#23373b;fill-opacity:1;fill-rule:evenodd;stroke:none;stroke-width:0.26458332px;stroke-linecap:butt;stroke-linejoin:miter;stroke-opacity:1"
       d="m 92.351689,258.48797 c 0,0 18.346821,-34.79486 9.087161,-57.29805 13.35977,-8.18039 16.23246,0.72206 25.37814,2.1926 -4.94039,11.59597 8.90218,40.69392 10.43598,55.10545"
       id="path905"
       inkscape:connector-curvature="0"
       sodipodi:nodetypes="cccc" />
    <path
       sodipodi:nodetypes="csccssc"
       inkscape:connector-curvature="0"
       id="path913"
       d="m 134.15807,182.86719 c 0,0 12.96508,0.547 -2.21761,-27.23666 -2.26382,-4.14269 -13.27484,-23.36753 -14.98397,-26.34966 2.01283,0.0577 2.21465,0.0935 3.49642,0 1.18439,2.16513 1.83923,3.50864 6.11362,11.02559 3.74267,6.58186 3.29516,5.33286 8.52091,13.83722 7.4512,12.12607 7.8644,16.40959 7.86912,25.06084"
       style="fill:#23373b;fill-opacity:1;fill-rule:evenodd;stroke:none;stroke-width:0.26458332px;stroke-linecap:butt;stroke-linejoin:miter;stroke-opacity:1" />
    <path
       style="fill:#23373b;fill-opacity:1;fill-rule:evenodd;stroke:none;stroke-width:0.26458332px;stroke-linecap:butt;stroke-linejoin:miter;stroke-opacity:1"
       d="m 57.503452,128.86495 c 0,0 -1.911545,-3.07921 -14.880641,-19.78866 -5.179588,-4.82396 -4.338047,-12.276123 -3.418854,-18.961733 0.453136,-3.29582 0.906551,-5.309 1.22734,-7.365358 0.137302,-0.880147 0.498632,-1.768204 0.417855,-2.768126 2.494619,-0.04766 -0.375501,-3e-6 2.0807,0 -1.601692,4.352366 -1.936708,8.485384 -1.998998,15.217964 -0.02233,2.41302 0.345925,5.403123 6.984629,12.940513 7.470994,8.48234 16.455571,16.63495 17.018453,20.7254"
       id="path915"
       inkscape:connector-curvature="0"
       sodipodi:nodetypes="ccssccssc" />
    <path
       sodipodi:nodetypes="cssccsc"
       inkscape:connector-curvature="0"
       id="path917"
       d="m 169.75624,144.00716 c 0,0 -10.49259,-6.40283 -17.56157,-14.22815 -2.43159,-2.69176 -3.07463,-4.17373 -5.25925,-6.81609 -2.48297,-3.00322 -0.49134,-3.35873 -2.16543,-11.94138 2.7705,5.4694 0.4456,8.7903 2.90754,11.71359 4.42983,4.90354 12.91804,12.1802 14.8053,13.49766 4.05142,2.82821 6.53816,4.6829 8.61739,3.99084"
       style="fill:#23373b;fill-opacity:1;fill-rule:evenodd;stroke:none;stroke-width:0.09662842px;stroke-linecap:butt;stroke-linejoin:miter;stroke-opacity:1" />
    <path
       style="fill:#23373b;fill-opacity:1;fill-rule:evenodd;stroke:none;stroke-width:0.06474762px;stroke-linecap:butt;stroke-linejoin:miter;stroke-opacity:1"
       d="m 115.95162,115.44026 c 0,0 -1.13004,-1.31677 -0.49691,-3.62851 0.28759,-1.05006 0.88648,-1.78043 2.21249,-3.60784 1.46028,-2.01245 4.91861,-2.79462 5.61385,-5.06191 0.78229,-2.5512 0.80462,-0.54048 2.88575,-6.278993 -1.66382,4.089123 -2.85313,4.153673 -4.33164,6.339233 -1.19821,1.65119 -2.74135,1.82287 -4.03378,2.54802 -1.57707,0.88485 -2.84553,2.17333 -3.46844,2.71467 -2.43307,2.11448 -0.0228,7.49274 -1.27151,6.97533"
       id="path919"
       inkscape:connector-curvature="0"
       sodipodi:nodetypes="csssccssc" />
    <path
       sodipodi:nodetypes="cssssccssc"
       inkscape:connector-curvature="0"
       id="path921"
       d="m 44.145928,66.245543 c 0,0 -1.13004,-1.31677 -0.49691,-3.62851 0.28759,-1.05006 0.88648,-1.78043 2.21249,-3.60784 1.46028,-2.01245 4.356377,-3.786806 5.05161,-6.054097 0.297135,-0.969016 -1.157685,-5.208974 -2.716277,-10.614855 -2.544832,-8.826595 -2.504539,-7.857886 -2.289576,-11.080286 -1.66382,4.08912 4.674671,20.429716 3.196161,22.615276 -1.19821,1.65119 -1.815308,1.955162 -3.107738,2.680312 -1.57707,0.88485 -2.84553,2.17333 -3.46844,2.71467 -2.433075,2.11448 -0.0228,7.49274 -1.27151,6.97533"
       style="fill:#23373b;fill-opacity:1;fill-rule:evenodd;stroke:none;stroke-width:0.06474762px;stroke-linecap:butt;stroke-linejoin:miter;stroke-opacity:1" />
    <path
       style="fill:#23373b;fill-opacity:1;fill-rule:evenodd;stroke:none;stroke-width:0.06474762px;stroke-linecap:butt;stroke-linejoin:miter;stroke-opacity:1"
       d="m 181.92115,92.716067 c -0.18435,-2.67508 -3.52665,-6.26775 -4.8793,-8.545968 -0.81356,-3.652375 0.47428,-3.599717 1.16952,-5.867008 0.27691,-2.459279 0.32935,-6.44943 0.24141,-8.54293 -0.0326,-0.776203 -0.6006,-5.055129 -0.93285,-7.511865 -0.139,-1.027824 -3.31252,-4.762876 -3.31252,-4.762876 -0.022,0.03034 1.74592,2.185726 2.58201,3.804859 0.74661,1.445839 0.56925,2.363563 0.58748,2.55687 0.09,0.954757 0.31355,2.477327 0.2764,2.757244 -0.14643,1.103484 0.23184,5.661138 -0.007,7.588806 -0.42147,3.406682 -1.19079,5.476765 -1.92057,5.886224 -1.57707,0.884854 0.68367,6.334284 1.20878,6.970934 3.13281,3.79828 2.36258,6.18312 1.11387,5.66571"
       id="path923"
       inkscape:connector-curvature="0"
       sodipodi:nodetypes="cccsscssssssc" />
    <path
       style="fill:#23373b;fill-opacity:1;fill-rule:evenodd;stroke:none;stroke-width:0.09728824px;stroke-linecap:butt;stroke-linejoin:miter;stroke-opacity:1"
       d="m 82.923447,113.89615 c 0,0 10.63638,-6.40283 17.802233,-14.228151 2.46491,-2.69176 3.38135,-3.44613 5.5959,-6.08849 1.9876,-2.37156 0.59555,-2.89292 -1.96602,-5.73969 -0.68227,-0.75823 1.35219,-3.402052 0.52895,-4.54391 -0.14934,0.775474 -0.55929,1.536969 -1.19948,2.010684 -0.56961,0.421483 -0.60489,2.348746 -0.60489,2.348746 0.26637,1.89482 3.64819,3.30125 2.22458,4.96878 -4.49054,4.90354 -13.095063,12.180201 -15.008193,13.497661 -4.10694,2.82821 -6.62776,4.6829 -8.73548,3.99084"
       id="path925"
       inkscape:connector-curvature="0"
       sodipodi:nodetypes="cssscsscsc" />
    <path
       style="fill:none;fill-opacity:1;fill-rule:evenodd;stroke:#eb811b;stroke-width:3;stroke-linecap:butt;stroke-linejoin:miter;stroke-miterlimit:4;stroke-dasharray:none;stroke-opacity:1"
       d="m 186.52522,64.753381 c 4.21908,24.813055 28.89188,27.570402 20.81747,40.421469 -5.40441,8.07371 -10.19132,18.60242 -21.47808,25.77871 -10.40478,6.6155 10.64581,37.37099 -9.7906,52.8831 -13.48059,10.23234 -36.46923,-3.35662 -49.42981,-0.31648 -5.62735,1.32 -4.41289,-2.22239 -9.36734,-0.2025 -14.20713,5.79212 -10.81194,16.17506 -31.267645,16.45208 -14.664602,0.1986 -11.385801,-8.51868 -18.720917,-21.36251 C 63.38193,171.56718 53.72343,169.1136 45.98871,161.63203 35.247633,155.71454 5.7758584,101.29115 13.404978,89.353947 18.091235,82.021435 14.324532,57.60862 22.250714,52.515908 30.176896,47.423196 38.150542,25.842971 44.453749,24.022159 c 7.599592,-2.195299 9.822758,17.186965 14.142546,20.392294 4.319788,3.205329 7.707735,13.723526 15.899981,11.021585 16.730363,-5.517957 5.991245,10.229699 23.309773,4.996711 6.966171,-2.104905 4.208891,-9.7148 12.499531,-10.482079 8.29063,-0.767278 13.59151,13.536208 24.09819,13.808381 27.08996,-4.112546 50.20691,-28.173597 52.12145,0.99433 z"
       id="path929"
       inkscape:connector-curvature="0"
       sodipodi:nodetypes="ccsssssscszszsszcc" />
    <path
       style="fill:#23373b;fill-opacity:1;fill-rule:evenodd;stroke:none;stroke-width:0.26458332px;stroke-linecap:butt;stroke-linejoin:miter;stroke-opacity:1"
       d="m 93.915461,148.82548 c -1.077774,-2.37484 -2.349974,-5.33461 -3.536898,-7.69042 -4.105055,-8.14774 -10.391403,-24.16255 -11.779119,-31.19725 -3.014182,-15.279713 -0.138793,-33.166688 1.918733,-46.181447 1.273281,21.205464 -2.917741,33.539114 0.981798,45.869477 4.166174,11.9136 12.257774,28.13714 17.767506,39.0945 m -0.840071,13.96342 c 0,0 2.54947,-0.35631 6.49198,-0.30817 5.9694,12.30992 9.45087,21.88474 14.24318,32.32854 0.73659,1.56817 -6.56073,0.81548 -5.82554,6.15813"
       id="path909"
       inkscape:connector-curvature="0"
       sodipodi:nodetypes="cssccccccc" />
    <rect
       style="opacity:1;fill:none;fill-opacity:1;fill-rule:nonzero;stroke:#23373b;stroke-width:1.5;stroke-linecap:round;stroke-linejoin:miter;stroke-miterlimit:4;stroke-dasharray:none;stroke-dashoffset:0;stroke-opacity:1"
       id="rect963"
       width="39.00444"
       height="13.647654"
       x="85.288048"
       y="148.8333" />
    <text
       transform="scale(0.98627266,1.0139184)"
       xml:space="preserve"
       style="font-style:normal;font-variant:normal;font-weight:normal;font-stretch:normal;font-size:7.05555582px;line-height:4.57362413px;font-family:sans-serif;-inkscape-font-specification:'sans-serif, Normal';font-variant-ligatures:normal;font-variant-caps:normal;font-variant-numeric:normal;font-feature-settings:normal;text-align:start;letter-spacing:0px;word-spacing:0px;writing-mode:lr-tb;text-anchor:start;fill:#000000;fill-opacity:1;stroke:none;stroke-width:0.69144559;stroke-linecap:butt;stroke-linejoin:miter;stroke-miterlimit:4;stroke-dasharray:none;stroke-opacity:1"
       x="91.094276"
       y="156.24846"
       id="text967"><tspan
         sodipodi:role="line"
         id="tspan965"
         x="91.094276"
         y="156.24846"
         style="font-style:normal;font-variant:normal;font-weight:normal;font-stretch:normal;font-size:7.05555582px;font-family:sans-serif;-inkscape-font-specification:'sans-serif, Normal';font-variant-ligatures:normal;font-variant-caps:normal;font-variant-numeric:normal;font-feature-settings:normal;text-align:start;writing-mode:lr-tb;text-anchor:start;stroke-width:0.69144559;stroke-miterlimit:4;stroke-dasharray:none">3D plots</tspan></text>
  </g>
</svg>
